<svg width="164" height="173" viewBox="0 0 164 173" fill="none" xmlns="http://www.w3.org/2000/svg">
<path d="M96.752 92.14C96.8307 92.0053 96.9187 91.8773 96.9907 91.74L97.1947 91.324C97.332 91.048 97.468 90.7747 97.604 90.5013C97.8307 89.936 98.0573 89.3747 98.24 88.8107C98.572 87.66 98.816 86.572 98.9093 85.4627C98.9293 85.184 98.9493 84.9093 98.968 84.6387C98.976 84.5093 98.9854 84.3813 98.9934 84.2533C98.9947 84.1227 98.996 83.9933 98.9974 83.864C98.996 83.348 98.98 82.8493 98.932 82.372C98.7573 80.46 98.2973 78.8973 97.8813 77.848C97.6747 77.3213 97.4947 76.9133 97.364 76.6373C97.2307 76.3627 97.16 76.216 97.16 76.216C97.16 76.216 97.2467 76.3547 97.4093 76.612C97.5653 76.8747 97.8027 77.2573 98.048 77.7747C98.5427 78.8 99.1787 80.34 99.468 82.3067C99.5467 82.7973 99.5947 83.312 99.6267 83.8467C99.6333 83.9813 99.6387 84.116 99.644 84.252C99.6453 84.42 99.6387 84.5293 99.6347 84.6733C99.6267 84.944 99.6187 85.22 99.6107 85.4987C99.6067 85.6387 99.6027 85.7787 99.5987 85.92C99.5893 86.0627 99.564 86.2107 99.5467 86.356C99.508 86.6507 99.4694 86.948 99.4307 87.2493C99.4014 87.5547 99.332 87.8493 99.256 88.1467C99.1827 88.444 99.1093 88.7453 99.0347 89.0493C98.8587 89.648 98.636 90.2453 98.4107 90.848C98.2747 91.14 98.1373 91.4333 98 91.7293L97.7893 92.172C97.7147 92.316 97.624 92.4533 97.54 92.596C97.3707 92.8773 97.2 93.16 97.0294 93.444C96.86 93.728 96.6427 93.9827 96.4507 94.2533C96.2453 94.5147 96.0693 94.8027 95.8373 95.044L95.1667 95.788C94.9507 96.0453 94.6947 96.2613 94.4467 96.4853L93.7013 97.152L92.9013 97.7453C92.6373 97.9467 92.3707 98.1413 92.0827 98.3013C91.8 98.4707 91.52 98.64 91.24 98.808C90.9627 98.9773 90.656 99.092 90.368 99.2347C90.0747 99.3667 89.7907 99.5173 89.4933 99.6293C89.1947 99.7347 88.896 99.8387 88.6013 99.9427C87.4213 100.357 86.224 100.567 85.092 100.691C83.9493 100.773 82.884 100.805 81.888 100.683C79.9107 100.481 78.344 99.9147 77.296 99.4653C76.7694 99.2427 76.3773 99.02 76.108 98.8773C75.8427 98.7267 75.7013 98.6453 75.7013 98.6453C75.7013 98.6453 75.8507 98.7093 76.1307 98.832C76.412 98.9467 76.8267 99.1107 77.3627 99.2933C78.4307 99.664 80.012 100.051 81.9294 100.141C82.8774 100.201 83.932 100.108 85.0093 99.9907C86.0893 99.824 87.216 99.572 88.328 99.1573C88.6054 99.052 88.8853 98.9453 89.1667 98.8387C89.4453 98.7253 89.7093 98.5747 89.9853 98.4427C90.2547 98.3 90.5413 98.1867 90.8 98.0173C91.0627 97.8573 91.3253 97.6947 91.5907 97.532C91.8627 97.38 92.1133 97.1933 92.36 97L93.1107 96.4333L93.8093 95.7973C94.0413 95.584 94.2813 95.3787 94.484 95.136L95.124 94.4387C95.3453 94.2133 95.512 93.9413 95.708 93.6973C95.892 93.4427 96.1 93.2053 96.2627 92.9373C96.4254 92.6707 96.5893 92.404 96.752 92.14ZM68.8747 79.4013C67.6827 77.8827 69.5653 74.4147 73.0813 71.6547C76.5973 68.8947 80.4133 67.888 81.6053 69.4067C82.2173 70.1867 82.0134 71.4853 81.196 72.9347C81.9707 72.9547 82.636 73.2213 83.0533 73.752C84.0453 75.016 83.268 77.2813 81.3173 78.812C79.3667 80.344 76.9813 80.5613 75.9893 79.2973C75.784 79.036 75.6587 78.7293 75.6 78.396C72.6653 80.1773 69.864 80.6627 68.8747 79.4013ZM83.1533 66.3827C73.26 66.3827 65.2413 74.4027 65.2413 84.2947C65.2413 94.188 73.26 102.208 83.1533 102.208C93.0467 102.208 101.067 94.188 101.067 84.2947C101.067 74.4027 93.0467 66.3827 83.1533 66.3827Z" fill="#3F3F3F"/>
<path d="M160.355 109.331C160.311 109.436 160.176 109.763 159.952 110.305C159.883 110.473 159.805 110.66 159.72 110.868C159.631 111.068 159.513 111.235 159.4 111.445C159.16 111.852 158.936 112.332 158.524 112.851C158.336 113.113 158.137 113.391 157.927 113.683C157.684 113.952 157.429 114.236 157.161 114.532C157.028 114.68 156.892 114.832 156.752 114.987C156.684 115.048 156.612 115.113 156.543 115.177C154.952 113.541 152.731 112.521 150.268 112.521C145.432 112.521 141.511 116.443 141.511 121.279C141.511 121.643 141.54 121.999 141.583 122.351C138.616 123.016 135.341 123.485 131.819 123.756C128.871 123.983 125.741 124.056 122.473 123.988C123.252 118.159 123.62 112.385 123.74 106.731C123.751 106.136 123.757 105.545 123.761 104.953C126.548 103.128 129.227 101.265 131.773 99.372C138.551 94.316 144.419 89.028 149.248 83.7133C150.631 85.0426 151.907 86.3707 153.057 87.6907C155.073 90.0187 156.717 92.3186 157.969 94.512C158.127 94.7866 158.283 95.056 158.436 95.3227C158.577 95.5947 158.704 95.868 158.836 96.1347C159.089 96.672 159.371 97.1827 159.553 97.708C159.749 98.228 159.964 98.7267 160.132 99.2187C160.276 99.7173 160.417 100.197 160.552 100.661C160.688 101.125 160.739 101.585 160.832 102.019C160.873 102.237 160.915 102.451 160.955 102.659C160.979 102.869 160.989 103.076 161.004 103.277C161.033 103.68 161.063 104.064 161.089 104.429C161.076 104.792 161.063 105.137 161.051 105.463C161.06 106.119 160.936 106.68 160.871 107.169C160.829 107.412 160.811 107.64 160.761 107.841C160.705 108.04 160.656 108.221 160.612 108.381C160.464 108.925 160.377 109.244 160.355 109.331V109.331ZM158.381 120.291C158.427 120.533 158.459 120.789 158.483 121.056L158.497 121.257L158.496 121.472C158.496 121.605 158.495 121.74 158.493 121.877C158.484 122.428 158.393 123.069 158.236 123.664C158.151 123.965 158.043 124.267 157.933 124.571C157.793 124.863 157.684 125.176 157.504 125.453C157.337 125.74 157.167 126.027 156.959 126.291C156.769 126.568 156.541 126.815 156.316 127.065C156.089 127.315 155.823 127.523 155.576 127.748C155.301 127.94 155.048 128.161 154.759 128.323C154.477 128.496 154.195 128.664 153.893 128.785C153.603 128.929 153.3 129.035 153.001 129.131C152.407 129.332 151.804 129.424 151.236 129.475C150.661 129.505 150.137 129.505 149.639 129.429C148.657 129.3 147.891 128.993 147.387 128.741C147.132 128.619 146.947 128.497 146.817 128.42C146.692 128.339 146.625 128.295 146.625 128.295C146.625 128.295 146.923 128.417 147.455 128.567C147.985 128.715 148.757 128.875 149.68 128.888C150.132 128.901 150.644 128.84 151.155 128.773C151.669 128.681 152.201 128.547 152.728 128.344C152.992 128.244 153.257 128.137 153.509 127.993C153.772 127.869 154.017 127.709 154.268 127.555C154.523 127.407 154.744 127.203 154.985 127.031C155.201 126.825 155.435 126.636 155.633 126.412C155.836 126.193 156.045 125.979 156.216 125.733C156.407 125.503 156.561 125.249 156.715 124.997C156.877 124.751 156.984 124.477 157.127 124.225C157.237 123.959 157.349 123.693 157.44 123.427C157.604 122.875 157.733 122.38 157.792 121.841C157.804 121.705 157.817 121.571 157.829 121.439L157.845 121.259L157.853 121.072C157.861 120.825 157.86 120.585 157.845 120.356C157.791 119.433 157.596 118.671 157.424 118.147C157.253 117.621 157.116 117.329 157.116 117.329C157.116 117.329 157.163 117.395 157.249 117.517C157.332 117.641 157.461 117.823 157.595 118.072C157.868 118.563 158.208 119.316 158.381 120.291V120.291ZM143.287 118.887C142.704 118.144 143.625 116.449 145.344 115.1C147.063 113.751 148.928 113.257 149.511 114C149.812 114.383 149.709 115.02 149.308 115.731C149.687 115.741 150.015 115.865 150.219 116.125C150.704 116.743 150.324 117.851 149.371 118.599C148.416 119.348 147.251 119.453 146.765 118.836C146.665 118.708 146.609 118.555 146.581 118.392C145.144 119.265 143.772 119.504 143.287 118.887V118.887ZM121.239 73.708C120.687 70.3853 120.052 67.1453 119.359 63.9786C121.612 65.052 123.801 66.1533 125.907 67.284C132.032 70.5933 137.533 74.1027 142.248 77.7213C138.177 82.772 132.991 88.02 126.883 93.216C125.815 94.1213 124.708 95.0213 123.584 95.92C123.488 93.852 123.357 91.8013 123.195 89.7707C123.088 88.388 122.944 86.996 122.821 85.624C122.692 84.2493 122.523 82.964 122.377 81.6413C122.047 78.9107 121.68 76.3107 121.239 73.708V73.708ZM119.156 116.093C119.12 116.957 119.091 118.197 118.963 119.676C118.844 121.156 118.692 122.884 118.443 124.725C118.188 126.565 117.875 128.521 117.521 130.472C117.125 132.415 116.691 134.348 116.245 136.151C115.792 137.952 115.295 139.613 114.856 141.032C114.425 142.453 113.995 143.616 113.707 144.432C113.404 145.243 113.231 145.707 113.231 145.707C113.231 145.707 113.353 145.227 113.568 144.388C113.796 143.555 114.085 142.353 114.448 140.919C114.825 139.487 115.187 137.797 115.611 135.999C116.021 134.197 116.421 132.267 116.781 130.329C117.165 128.397 117.509 126.456 117.796 124.631C118.068 122.803 118.36 121.1 118.54 119.631C118.733 118.164 118.912 116.94 119.009 116.081C119.121 115.223 119.185 114.732 119.185 114.732C119.185 114.732 119.175 115.227 119.156 116.093V116.093ZM110.297 145.469C109.709 147.083 109.008 148.811 108.144 150.591C107.287 152.372 106.295 154.224 105.068 156.029C103.843 157.831 102.44 159.643 100.693 161.212C98.9667 162.789 96.8733 164.128 94.52 164.883C93.9533 165.097 93.2867 165.185 92.664 165.319C92.3333 165.396 92.0867 165.381 91.7933 165.417L91.3706 165.453L91.16 165.472L91.0547 165.48L90.936 165.488H90.88C89.6813 165.489 88.4813 165.437 87.316 165.221C84.976 164.837 82.7867 163.971 80.8613 162.877C78.9213 161.793 77.244 160.464 75.7827 159.103C74.32 157.736 73.0906 156.307 72.036 154.94C69.924 152.201 68.5373 149.685 67.6467 147.901C66.7613 146.111 66.38 145.037 66.38 145.037C66.38 145.037 66.9346 146.032 68.0346 147.677C69.1333 149.32 70.7787 151.623 73.028 154.108C74.1573 155.347 75.4493 156.616 76.8986 157.841C78.3586 159.055 80.0066 160.181 81.8053 161.127C83.6026 162.083 85.6 162.736 87.6666 163.065C88.7 163.247 89.7573 163.276 90.8147 163.265L91.5907 163.193C91.8573 163.157 92.184 163.16 92.404 163.091C92.8826 162.965 93.3506 162.92 93.8453 162.723C95.82 162.109 97.66 160.992 99.2386 159.58C100.815 158.165 102.224 156.565 103.433 154.887C105.863 151.529 107.668 148.024 109.096 144.972C110.499 141.904 111.536 139.272 112.22 137.412C112.911 135.553 113.26 134.471 113.26 134.471C113.26 134.471 113.096 135.597 112.652 137.541C112.207 139.483 111.477 142.244 110.297 145.469V145.469ZM68.9986 156.284C68.4626 155.608 67.68 154.651 66.8267 153.439C65.9627 152.235 64.9786 150.809 64.0053 149.231C63.04 147.647 62.06 145.929 61.1267 144.183C60.2373 142.416 59.396 140.624 58.6573 138.924C57.9293 137.219 57.328 135.593 56.8413 134.195C56.3427 132.799 56.008 131.608 55.764 130.78C55.536 129.947 55.4053 129.472 55.4053 129.472C55.4053 129.472 55.5866 129.931 55.9026 130.733C56.204 131.541 56.676 132.68 57.236 134.044C57.78 135.416 58.5053 136.977 59.2547 138.659C60.0187 140.335 60.8827 142.099 61.796 143.836C62.692 145.583 63.636 147.305 64.5666 148.895C65.512 150.473 66.3693 151.967 67.1787 153.201C67.972 154.444 68.6307 155.487 69.1173 156.197C69.592 156.919 69.8627 157.331 69.8627 157.331C69.8627 157.331 69.548 156.951 68.9986 156.284V156.284ZM107.835 122.805C103.652 122.227 99.3227 121.44 94.892 120.453C95.2067 120.316 95.524 120.177 95.8386 120.041C97.0866 119.495 98.2693 118.933 99.48 118.391C101.937 117.245 104.299 116.105 106.628 114.904C108.891 113.743 111.101 112.552 113.26 111.337C112.891 115.117 112.396 118.912 111.74 122.695C111.705 122.887 111.668 123.079 111.635 123.271C110.38 123.133 109.116 122.983 107.835 122.805V122.805ZM62.4013 127.569C62.3853 127.525 62.3667 127.481 62.3493 127.437C60.9747 123.811 59.7453 120.144 58.648 116.468C60.0573 117.004 61.4653 117.519 62.872 118.007C64.1733 118.467 65.492 118.893 66.7893 119.332C68.088 119.767 69.3386 120.135 70.6053 120.535C72.9613 121.248 75.2453 121.904 77.5373 122.509C76.6906 122.843 75.848 123.18 74.9907 123.501C70.9027 125.011 66.7 126.381 62.4013 127.569V127.569ZM90.5746 160.452L89.7307 160.484L89.1693 160.505C89.1293 160.505 89.0613 160.512 89.044 160.507L88.984 160.493L88.8627 160.471C88.7027 160.441 88.5426 160.425 88.38 160.42C88.3347 160.416 88.308 160.425 88.248 160.411L88.0706 160.372L87.716 160.299C87.4773 160.243 87.24 160.232 87 160.151L86.276 159.923L85.9106 159.816L85.5453 159.655C85.3026 159.549 85.056 159.448 84.8093 159.349C82.8333 158.469 80.86 157.008 79.0147 155.291C77.1653 153.565 75.4333 151.545 73.8346 149.381C72.2386 147.209 70.7467 144.913 69.3853 142.512C68.0267 140.109 66.7373 137.652 65.592 135.116C64.9947 133.864 64.46 132.576 63.9013 131.305C63.852 131.187 63.8053 131.067 63.756 130.948C68.048 129.94 72.252 128.749 76.352 127.439C79.3693 126.483 82.3293 125.451 85.2373 124.365C92.8866 126.045 100.283 127.18 107.277 127.796C108.424 127.893 109.56 127.977 110.684 128.048C110.481 128.983 110.277 129.917 110.032 130.84C109.396 133.544 108.609 136.2 107.74 138.813L107.059 140.76L106.316 142.671C106.081 143.316 105.801 143.929 105.533 144.552C105.265 145.175 105.001 145.801 104.699 146.396C103.555 148.825 102.243 151.136 100.76 153.177C99.2853 155.215 97.6373 157.027 95.8746 158.272L95.212 158.713L94.884 158.939L94.5466 159.112L93.88 159.472C93.6613 159.599 93.4306 159.656 93.2093 159.756C92.984 159.836 92.768 159.971 92.54 160.019C92.3133 160.076 92.0893 160.139 91.8653 160.207C91.644 160.292 91.4147 160.315 91.1867 160.345L90.8466 160.401L90.676 160.432L90.592 160.448C90.6307 160.447 90.6066 160.449 90.5746 160.452V160.452ZM52.6547 88.1986L52.524 87.28L52.408 86.3013C52.3307 85.6493 52.2533 85 52.1773 84.3533C52.0093 83.0413 51.9093 81.8173 51.7827 80.568C51.2867 75.32 51.0293 70.1893 50.9813 65.2253C54.2467 63.2133 57.5467 61.348 60.8413 59.604C62.0187 58.9773 63.2067 58.3853 64.3773 57.7813C65.552 57.1813 66.7413 56.6267 67.9093 56.052L68.7627 55.6413L69.6587 55.2293C70.256 54.9573 70.8506 54.6866 71.444 54.416C72.6373 53.8586 73.7947 53.388 74.9533 52.8867C76.7987 52.104 78.6333 51.3693 80.4613 50.6613C87.1147 52.1573 93.5333 53.98 99.6507 56.04C103.661 57.3933 107.537 58.8533 111.269 60.3946C112.079 65.0106 112.731 69.8107 113.199 74.76C113.308 76.0147 113.444 77.2746 113.52 78.5493C113.567 79.1853 113.615 79.824 113.661 80.464L113.732 81.4253L113.783 82.3653C113.845 83.6746 113.939 85.0307 113.979 86.3227C114.012 87.616 114.067 88.9027 114.087 90.2173C114.157 94.46 114.081 98.772 113.863 103.124C110.637 105.341 107.255 107.517 103.713 109.627C101.547 110.925 99.2853 112.199 97.0293 113.429C95.868 114.044 94.6867 114.695 93.5173 115.28C92.3453 115.863 91.1787 116.467 89.9813 117.044C88.972 117.533 87.9507 118.012 86.924 118.487C84.652 117.871 82.36 117.205 80.0507 116.484C77.6413 115.745 75.1813 114.919 72.7746 114.072C71.5413 113.621 70.2613 113.181 69.048 112.713C67.8347 112.24 66.616 111.787 65.3907 111.292C62.3333 110.057 59.26 108.751 56.196 107.344C55.2787 103.529 54.4973 99.724 53.8467 95.952C53.408 93.3467 53 90.7626 52.6547 88.1986V88.1986ZM50.4573 130.248C47.62 130.743 44.7467 131.08 41.8573 131.309C40.3787 131.425 38.896 131.488 37.412 131.505C37.42 131.353 37.4346 131.203 37.4346 131.048C37.4346 126.212 33.5147 122.291 28.6773 122.291C24.6013 122.291 21.1853 125.08 20.2093 128.852C19.6387 128.611 19.0787 128.349 18.5093 128.101C17.896 127.753 17.2627 127.429 16.6667 127.053L15.7987 126.456L15.3627 126.16L14.9627 125.823L14.1627 125.148C13.8933 124.924 13.676 124.652 13.4307 124.408C13.2 124.151 12.9293 123.924 12.7293 123.641L12.104 122.816C11.88 122.551 11.712 122.249 11.54 121.951L11.2787 121.505L11.1467 121.283L11.08 121.172C11.072 121.163 11.0067 121.033 11.044 121.124L10.5947 120.096L10.3707 119.581C10.2893 119.408 10.2693 119.259 10.2147 119.097L9.93066 118.145C9.82533 117.835 9.79866 117.471 9.72799 117.136C9.67599 116.792 9.58533 116.456 9.56399 116.108L9.49199 115.063L9.456 114.54L9.47332 114.012L9.50665 112.959C9.67999 110.14 10.4853 107.343 11.5733 104.679C12.6707 102.009 14.096 99.464 15.6867 97.036C16.4507 95.872 17.252 94.7333 18.0867 93.6187C20.096 95.3213 22.156 96.936 24.2693 98.4293C25.4893 99.332 26.7507 100.153 27.992 101.003C29.248 101.824 30.5053 102.632 31.772 103.415C33.0493 104.175 34.3067 104.965 35.596 105.679C36.2373 106.043 36.8773 106.407 37.516 106.769C38.1627 107.117 38.8067 107.465 39.4507 107.812C40.7387 108.507 42.0413 109.155 43.34 109.797C44.6307 110.457 45.9467 111.048 47.2427 111.664C47.3587 111.717 47.4747 111.768 47.5907 111.821C47.724 112.509 47.86 113.199 48.0013 113.888C49.12 119.201 50.4893 124.58 52.2293 129.941C51.64 130.052 51.0507 130.159 50.4573 130.248ZM36.9053 131.241C36.9053 131.375 36.904 131.509 36.9026 131.645C36.8933 132.197 36.8027 132.839 36.6453 133.433C36.56 133.735 36.452 134.036 36.3427 134.34C36.2027 134.631 36.0933 134.944 35.9133 135.223C35.7467 135.509 35.576 135.796 35.368 136.059C35.1786 136.337 34.9507 136.584 34.7253 136.835C34.4987 137.083 34.232 137.292 33.9853 137.517C33.7107 137.709 33.4573 137.929 33.168 138.092C32.8866 138.265 32.604 138.433 32.3026 138.555C32.012 138.699 31.7107 138.803 31.4107 138.899C30.816 139.101 30.2133 139.193 29.6453 139.243C29.0707 139.275 28.5467 139.273 28.048 139.199C27.0667 139.068 26.3 138.763 25.796 138.511C25.5413 138.388 25.356 138.267 25.2267 138.189C25.1013 138.108 25.0347 138.064 25.0347 138.064C25.0347 138.064 25.332 138.187 25.864 138.335C26.3947 138.484 27.1667 138.644 28.0893 138.657C28.5413 138.671 29.0533 138.609 29.564 138.543C30.0787 138.451 30.6107 138.316 31.1373 138.113C31.4013 138.013 31.6667 137.905 31.92 137.763C32.1813 137.639 32.4267 137.479 32.6773 137.323C32.932 137.176 33.1533 136.972 33.3947 136.799C33.6107 136.593 33.844 136.405 34.0427 136.181C34.2453 135.963 34.4547 135.747 34.6253 135.503C34.816 135.272 34.9707 135.019 35.124 134.767C35.2867 134.52 35.3933 134.247 35.536 133.993C35.6466 133.727 35.7587 133.463 35.8493 133.195C36.0133 132.643 36.1426 132.149 36.2013 131.611C36.2133 131.475 36.2266 131.34 36.2386 131.208L36.2547 131.028L36.2627 130.841C36.2707 130.595 36.2693 130.355 36.2547 130.124C36.2 129.203 36.0053 128.439 35.8333 127.916C35.6626 127.391 35.5253 127.099 35.5253 127.099C35.5253 127.099 35.572 127.164 35.6587 127.285C35.7413 127.411 35.8706 127.592 36.004 127.84C36.2773 128.332 36.6173 129.085 36.7907 130.06C36.8373 130.303 36.868 130.559 36.892 130.825L36.9067 131.027L36.9053 131.241ZM21.696 128.656C21.1133 127.913 22.0347 126.217 23.7533 124.868C25.472 123.519 27.3373 123.027 27.92 123.769C28.2213 124.152 28.1187 124.789 27.716 125.5C28.096 125.509 28.424 125.633 28.628 125.893C29.1133 126.512 28.7333 127.619 27.78 128.368C26.8267 129.116 25.66 129.223 25.1747 128.605C25.0747 128.476 25.0187 128.324 24.9907 128.16C23.5533 129.035 22.1813 129.273 21.696 128.656ZM10.612 82.8853C9.40666 81.4173 8.16266 79.768 6.99466 77.912C5.82399 76.0626 4.69466 74.0213 3.8 71.7693C2.91466 69.52 2.21066 67.06 2.01733 64.464C1.79066 61.8813 2.13066 59.136 3.068 56.6413C4.02 54.1 5.70533 51.9106 7.63333 50.1773C9.55866 48.4226 11.7533 47.1253 13.9293 46.0893C16.1093 45.0453 18.312 44.3 20.4147 43.7026C22.5187 43.1013 24.54 42.6893 26.4093 42.376C30.152 41.7453 33.3026 41.564 35.5013 41.4973C37.7026 41.436 38.9573 41.512 38.9573 41.512C38.9573 41.512 37.7067 41.6266 35.54 41.9426C33.376 42.2613 30.2907 42.7653 26.6693 43.644C23.0627 44.5426 18.88 45.788 14.812 47.872C12.7787 48.9027 10.8213 50.212 9.10665 51.7893C7.39465 53.364 5.96533 55.276 5.18133 57.4506C4.34666 59.6386 4.01999 61.9787 4.19866 64.3093C4.37066 66.6333 4.88266 68.924 5.66399 71.06C7.23199 75.3413 9.52399 79.0533 11.6467 82.0973C13.7947 85.136 15.8067 87.5293 17.2507 89.1707C18.7 90.8107 19.5853 91.7013 19.5853 91.7013C19.5853 91.7013 18.5747 90.9547 16.9307 89.488C15.2973 88.0147 13.02 85.824 10.612 82.8853V82.8853ZM43.5867 43.668C44.4813 43.6867 45.228 43.76 45.7493 43.7907C46.2693 43.8387 46.568 43.8653 46.568 43.8653C46.568 43.8653 46.2693 43.892 45.7493 43.9373C45.228 43.9746 44.484 44.0293 43.5933 44.0933C42.7027 44.1507 41.664 44.2173 40.5507 44.2893C39.4387 44.3493 38.2533 44.4266 37.068 44.5173C35.8813 44.5786 34.696 44.6533 33.5853 44.736C32.472 44.8066 31.4333 44.8733 30.5427 44.9307C29.6507 44.98 28.9053 45.0226 28.3853 45.052C27.8627 45.072 27.564 45.0853 27.564 45.0853C27.564 45.0853 27.8547 45.02 28.3667 44.9066C28.8787 44.8093 29.6093 44.6426 30.4947 44.5093C31.38 44.376 32.412 44.2026 33.5267 44.0853C34.64 43.9693 35.8293 43.86 37.02 43.7653C38.2133 43.7067 39.4067 43.6626 40.5267 43.636C41.6453 43.608 42.6907 43.6493 43.5867 43.668V43.668ZM8.004 57.0707C7.67467 57.7707 7.39466 58.496 7.184 59.1933C6.98933 59.8933 6.78 60.548 6.688 61.1306C6.57733 61.7066 6.48266 62.196 6.44799 62.5413C6.39999 62.888 6.372 63.0867 6.372 63.0867C6.372 63.0867 6.34666 62.8867 6.30266 62.5387C6.276 62.1893 6.22266 61.6826 6.268 61.0786C6.3 60.4733 6.37733 59.764 6.55333 59.0213C6.74133 58.2827 7.00266 57.5093 7.31866 56.7573C7.67866 56.0267 8.09065 55.3226 8.52532 54.6946C8.96799 54.0746 9.45465 53.552 9.89065 53.1306C10.3173 52.7 10.7347 52.408 11.016 52.1986C11.308 52.004 11.4747 51.8933 11.4747 51.8933C11.4747 51.8933 11.344 52.044 11.1147 52.308C10.876 52.56 10.5693 52.9533 10.2067 53.4146C9.82799 53.8653 9.472 54.4547 9.06933 55.0587C8.68133 55.6747 8.31733 56.3627 8.004 57.0707V57.0707ZM45.876 51.5547C45.288 55.7413 44.8573 60.112 44.58 64.6333C44.564 64.6453 44.548 64.656 44.532 64.6666C39.936 68.0013 35.4293 71.62 31.0987 75.5466C30.0147 76.5253 28.9453 77.5293 27.88 78.5413C26.836 79.5787 25.7667 80.592 24.7547 81.6747C23.6427 82.8173 22.5573 83.996 21.4947 85.1986C19.8493 83.6786 18.288 82.0826 16.8147 80.4333C14.9867 78.3733 13.316 76.2 11.9707 73.9293C11.632 73.364 11.3413 72.7853 11.0187 72.216C10.7173 71.6426 10.4827 71.0546 10.1973 70.4813C9.95199 69.9013 9.752 69.3173 9.51866 68.7373C9.36266 68.156 9.16666 67.5746 9.03333 66.996C8.52 64.7013 8.54799 62.496 9.14799 60.4693L9.17866 60.3907L9.27999 60.128L9.48266 59.6053L9.68533 59.0813C9.72 58.9786 9.74932 58.936 9.77866 58.8933L9.86399 58.7533C9.97466 58.5667 10.0787 58.3773 10.1747 58.1813C10.2093 58.0893 10.292 57.976 10.3747 57.8613L10.6107 57.5213C10.7747 57.2973 10.9013 57.0533 11.0893 56.84L11.6467 56.1933L11.9213 55.8653L12.2427 55.564L12.8787 54.952C13.3227 54.5573 13.8213 54.196 14.288 53.8106C14.8147 53.4706 15.32 53.112 15.856 52.7773C16.42 52.4666 16.956 52.128 17.536 51.8333C18.1307 51.5546 18.7053 51.2507 19.3133 50.9853C21.7347 49.912 24.3653 49.108 27.0587 48.4893C29.7573 47.88 32.516 47.4067 35.3133 47.1267C39.076 46.7227 42.876 46.5493 46.668 46.5587C46.3813 48.1933 46.116 49.8587 45.876 51.5547V51.5547ZM33.196 98.1227C33.196 98.1227 32.8573 97.9587 32.264 97.672C31.6787 97.3707 30.8307 96.9586 29.8587 96.3813C28.8827 95.8133 27.7493 95.136 26.5813 94.3373C25.4187 93.532 24.2027 92.64 23.0107 91.7133C21.8467 90.7533 20.7107 89.7613 19.6707 88.8013C18.6387 87.836 17.728 86.8787 16.96 86.0507C16.1853 85.228 15.5973 84.4907 15.1747 83.9853C14.7667 83.4693 14.532 83.1747 14.532 83.1747C14.532 83.1747 14.8053 83.4333 15.2827 83.8867C15.748 84.3493 16.4427 84.9827 17.26 85.752C18.068 86.532 19.0667 87.3827 20.1093 88.3173C21.1613 89.244 22.3093 90.2013 23.4827 91.1253C24.6413 92.068 25.8253 92.9787 26.96 93.8027C28.1013 94.6133 29.1467 95.404 30.0853 96.0227C31.0147 96.652 31.784 97.192 32.3373 97.5453C32.884 97.912 33.196 98.1227 33.196 98.1227V98.1227ZM23.6 87.0693C24.652 85.9307 25.728 84.8173 26.844 83.7493C27.8587 82.7266 28.936 81.7707 29.9827 80.792C31.052 79.836 32.1253 78.8893 33.2133 77.9666C36.824 74.956 40.5533 72.164 44.34 69.56C44.2133 73.2947 44.1947 77.124 44.296 81.0413C44.4627 87.8747 45.0067 94.9773 46.008 102.232C45.112 101.745 44.2173 101.255 43.3346 100.739C42.732 100.396 42.1267 100.053 41.5213 99.7093C40.9253 99.3533 40.3267 98.9973 39.728 98.64C38.52 97.9387 37.356 97.1706 36.1666 96.4293C31.7813 93.612 27.5547 90.4773 23.6 87.0693V87.0693ZM51.364 52.1453C51.5027 50.288 51.6773 48.468 51.8813 46.684C51.98 46.6893 52.0787 46.692 52.176 46.696C57.784 46.988 63.336 47.576 68.768 48.4213C69.3506 48.5133 69.9266 48.6186 70.5053 48.7146C70.0013 48.972 69.5013 49.232 69.016 49.4973C68.44 49.804 67.864 50.112 67.284 50.4213L66.4133 50.8813L65.512 51.38C64.3467 52.036 63.1613 52.672 61.9933 53.3547C60.8267 54.0413 59.6453 54.7147 58.476 55.4253C55.976 56.9293 53.4867 58.5187 51.0093 60.1733C51.064 57.436 51.1787 54.7506 51.364 52.1453V52.1453ZM55.4386 28.516C56.436 25.0933 57.6227 21.9747 58.912 19.196C60.216 16.4253 61.644 14.0067 63.1307 11.988C64.6227 9.97465 66.1493 8.33597 67.648 7.14397C68.0107 6.82664 68.4027 6.59065 68.7547 6.32399C68.9347 6.19599 69.1107 6.06931 69.2827 5.94531C69.464 5.83997 69.6427 5.7373 69.816 5.6373C70.1653 5.4373 70.4987 5.24533 70.816 5.06399C71.1507 4.92133 71.468 4.78665 71.768 4.65865C72.3613 4.37999 72.9226 4.25332 73.4 4.12666C73.6413 4.06932 73.8587 3.99599 74.0627 3.96399C74.268 3.93733 74.4547 3.91199 74.62 3.89065C75.172 3.81465 75.4973 3.77065 75.5907 3.75732C75.7 3.75599 76.0547 3.75331 76.6507 3.74931C76.832 3.74798 77.0347 3.74531 77.26 3.74397C77.4787 3.74797 77.6787 3.79064 77.916 3.81464C78.384 3.87864 78.912 3.89864 79.5507 4.07597C79.864 4.14797 80.1973 4.22397 80.5467 4.30397C80.8893 4.42263 81.248 4.54797 81.6253 4.67864C81.812 4.74397 82.004 4.81064 82.2013 4.87864C82.3746 4.95997 82.5533 5.04266 82.7346 5.12666C82.2293 6.23466 81.94 7.45999 81.94 8.75732C81.94 13.5933 85.8613 17.5146 90.6973 17.5146C92.3013 17.5146 93.7987 17.076 95.092 16.324C96.7653 18.7013 98.3706 21.4067 99.9026 24.388C101.588 27.6733 103.173 31.2986 104.625 35.2133C103.061 35.636 101.487 36.0813 99.892 36.572C93.5307 38.54 86.956 41.0253 80.2693 44.0213C76.904 43.1387 73.4773 42.332 69.9786 41.6373C64.4586 40.5386 58.7786 39.6813 52.9666 39.2C53.64 35.3973 54.4693 31.8213 55.4386 28.516ZM85.7733 2.57731C87.492 1.22797 89.3573 0.735973 89.94 1.47731C90.2413 1.85997 90.1386 2.49731 89.7373 3.20931C90.116 3.21864 90.444 3.34263 90.648 3.60263C91.1333 4.21997 90.7533 5.32797 89.8 6.07597C88.8466 6.82531 87.68 6.93064 87.196 6.31331C87.0947 6.18531 87.04 6.03197 87.0106 5.8693C85.5733 6.74263 84.2013 6.98133 83.716 6.36399C83.1333 5.62133 84.0546 3.92664 85.7733 2.57731V2.57731ZM93.1573 15.8227C93.4213 15.7213 93.6866 15.6146 93.94 15.472C94.2013 15.348 94.4467 15.1867 94.6973 15.032C94.9533 14.884 95.1733 14.6813 95.4147 14.508C95.6307 14.3026 95.8653 14.1133 96.0627 13.8893C96.2667 13.6707 96.4746 13.456 96.6453 13.2106C96.836 12.9813 96.9906 12.728 97.144 12.4746C97.3066 12.2293 97.4147 11.9546 97.5573 11.7026C97.668 11.436 97.7786 11.1706 97.8693 10.904C98.0333 10.352 98.1627 9.85731 98.2213 9.31865C98.2333 9.18265 98.2467 9.04931 98.2587 8.91598L98.276 8.7373L98.2827 8.55065C98.2907 8.30265 98.2906 8.06266 98.2746 7.83333C98.2213 6.91066 98.0253 6.14799 97.8533 5.62399C97.6827 5.09865 97.5453 4.80664 97.5453 4.80664C97.5453 4.80664 97.592 4.87199 97.6786 4.99466C97.7626 5.11866 97.8907 5.30131 98.024 5.54931C98.2973 6.04131 98.6386 6.79333 98.8106 7.768C98.8573 8.01066 98.888 8.26666 98.912 8.53333L98.9267 8.73466L98.9253 8.95065C98.9253 9.08265 98.924 9.21732 98.9227 9.35465C98.9133 9.90532 98.824 10.548 98.6653 11.1413C98.58 11.4426 98.472 11.744 98.3627 12.0493C98.224 12.34 98.1133 12.6533 97.9333 12.932C97.7666 13.2173 97.596 13.5053 97.388 13.768C97.2 14.0453 96.9706 14.2933 96.7453 14.5426C96.5186 14.792 96.252 15.0013 96.0053 15.2253C95.7306 15.4173 95.4773 15.6387 95.188 15.8013C94.9067 15.9747 94.624 16.1427 94.3227 16.264C94.032 16.4067 93.7307 16.512 93.4307 16.608C92.836 16.8106 92.2333 16.9013 91.6666 16.952C91.0906 16.9826 90.5666 16.9826 90.068 16.9066C89.0866 16.7773 88.32 16.4706 87.816 16.2186C87.5613 16.0973 87.376 15.9747 87.2467 15.8987C87.1213 15.816 87.0547 15.772 87.0547 15.772C87.0547 15.772 87.352 15.8946 87.884 16.044C88.4147 16.1933 89.1866 16.3533 90.1093 16.3653C90.5613 16.3787 91.0747 16.3173 91.584 16.2506C92.0987 16.1586 92.6307 16.0253 93.1573 15.8227V15.8227ZM108.293 46.7946C108.959 49.2986 109.568 51.892 110.131 54.5466C107.331 53.2933 104.455 52.08 101.487 50.9253C97.9853 49.5627 94.3653 48.268 90.6466 47.06C94.4866 45.8333 98.2506 44.772 101.899 43.896C103.679 43.4733 105.425 43.1013 107.149 42.76C107.545 44.0813 107.928 45.424 108.293 46.7946V46.7946ZM125.251 40.604C128.704 40.5133 131.9 40.66 134.767 40.9973C137.631 41.3427 140.16 41.9 142.283 42.5987C144.399 43.3013 146.132 44.112 147.413 44.9653C147.752 45.164 148.012 45.4053 148.301 45.6026C148.441 45.704 148.579 45.8026 148.713 45.9C148.829 46.0093 148.944 46.1146 149.056 46.2186C149.283 46.4213 149.497 46.6146 149.703 46.7986C149.873 47.0013 150.037 47.1906 150.195 47.3666C150.536 47.7026 150.731 48.0587 150.936 48.3387C151.033 48.4827 151.141 48.604 151.209 48.732C151.275 48.86 151.335 48.976 151.387 49.08C151.519 49.3306 151.611 49.4947 151.667 49.592C151.736 49.76 151.849 50.032 152.008 50.4146C152.077 50.5826 152.152 50.7707 152.247 50.976L152.281 51.0533C152.287 51.0707 152.287 51.0813 152.289 51.096L152.307 51.1786C152.32 51.2346 152.333 51.2933 152.347 51.3533C152.399 51.6067 152.535 51.8013 152.615 52.3213C152.663 52.5507 152.719 52.7933 152.781 53.0493C152.808 53.3213 152.836 53.6067 152.867 53.9067C152.884 54.0573 152.901 54.2106 152.92 54.368C152.919 54.5333 152.917 54.7013 152.916 54.8733C152.905 55.2213 152.945 55.5707 152.905 55.96C152.837 57.4893 152.468 59.36 151.787 61.476C151.097 63.592 150.055 65.9573 148.641 68.4666C147.431 70.5946 145.959 72.8293 144.253 75.1306C139.533 71.2173 134.067 67.3586 127.928 63.7133C124.789 61.8573 121.481 60.0493 118.025 58.3C116.855 53.664 115.54 49.2253 114.101 45.02C113.719 43.9133 113.328 42.8226 112.929 41.748C117.296 41.088 121.432 40.6986 125.251 40.604V40.604ZM128.404 36.74C130.245 36.5786 132.899 36.4413 136.085 36.684C137.679 36.804 139.407 37.008 141.215 37.3933C143.021 37.7693 144.919 38.304 146.799 39.124C148.675 39.9333 150.569 40.996 152.212 42.4773C153.052 43.212 153.779 44.0133 154.491 44.9627C155.079 45.748 155.739 46.8653 156.177 47.8653C157.072 49.9453 157.493 52.1827 157.581 54.3533C157.669 56.5293 157.395 58.648 156.969 60.6346C156.54 62.624 155.905 64.4813 155.203 66.1867C154.507 67.8973 153.705 69.4467 152.892 70.8267C151.269 73.5933 149.56 75.6613 148.245 76.9747C147.597 77.6413 147.028 78.1013 146.645 78.4133C146.249 78.712 146.039 78.8707 146.039 78.8707C146.039 78.8707 146.22 78.6813 146.561 78.324C146.892 77.96 147.355 77.4066 147.905 76.68C149.007 75.224 150.404 73.0173 151.743 70.216C153.064 67.4133 154.333 64.0026 155.013 60.2466C155.357 58.372 155.477 56.4107 155.399 54.4533C155.295 52.5 154.888 50.5453 154.103 48.7707C153.9 48.3307 153.704 47.88 153.467 47.492C153.271 47.1 152.957 46.6587 152.661 46.2267C152.416 45.8827 152.077 45.4787 151.773 45.1227C151.435 44.7773 151.12 44.4107 150.749 44.1C150.048 43.4373 149.259 42.8747 148.473 42.3267C147.66 41.8147 146.836 41.3307 145.976 40.9347C144.265 40.132 142.521 39.4933 140.817 39.0307C139.113 38.5707 137.468 38.224 135.932 37.968C132.859 37.4707 130.245 37.2787 128.413 37.1867C126.58 37.096 125.524 37.1093 125.524 37.1093C125.524 37.1093 126.561 36.908 128.404 36.74V36.74ZM158.247 61.2067C158.483 60.1933 158.683 59.1027 158.833 58.0053C159.003 56.9107 159.124 55.808 159.188 54.7693C159.235 53.732 159.312 52.7587 159.295 51.924C159.293 51.088 159.301 50.3866 159.275 49.8973C159.264 49.4053 159.257 49.124 159.257 49.124C159.257 49.124 159.317 49.4 159.421 49.8813C159.508 50.3653 159.651 51.06 159.719 51.904C159.799 52.7467 159.865 53.736 159.841 54.7973C159.808 55.8586 159.72 56.9893 159.579 58.1133C159.391 59.232 159.152 60.34 158.88 61.3666C158.596 62.3893 158.251 63.3187 157.933 64.104C157.624 64.892 157.289 65.5173 157.068 65.956C156.831 66.388 156.695 66.6347 156.695 66.6347C156.695 66.6347 156.781 66.3666 156.933 65.8986C157.099 65.4373 157.293 64.764 157.533 63.964C157.789 63.168 157.996 62.2147 158.247 61.2067V61.2067ZM161.691 112.512C161.82 112.247 161.963 111.992 162.048 111.779C162.125 111.568 162.196 111.377 162.259 111.207C162.511 110.527 162.64 110.176 162.64 110.176L162.664 110.108C162.664 110.108 162.761 109.716 162.951 108.956C162.997 108.765 163.049 108.552 163.107 108.317C163.159 108.081 163.177 107.815 163.219 107.531C163.284 106.959 163.403 106.299 163.38 105.545C163.384 105.171 163.388 104.773 163.392 104.355C163.352 103.94 163.311 103.504 163.267 103.048C163.244 102.82 163.221 102.587 163.199 102.348C163.156 102.113 163.112 101.875 163.067 101.631C162.965 101.145 162.904 100.627 162.759 100.113C162.265 98.0253 161.368 95.7413 160.117 93.3373C158.856 90.9373 157.196 88.44 155.164 85.9227C153.969 84.452 152.644 82.9733 151.204 81.4973C155.933 75.9653 159.432 70.3347 161.491 64.9547C162.561 62.1413 163.264 59.42 163.521 56.8907C163.607 56.2693 163.605 55.6346 163.644 55.044C163.656 54.7466 163.668 54.4547 163.68 54.1693C163.668 53.876 163.657 53.5906 163.645 53.3106C163.613 52.7506 163.584 52.216 163.555 51.708C163.475 51.1933 163.399 50.7053 163.327 50.244C163.219 49.3693 162.925 48.3933 162.681 47.62C162.619 47.424 162.557 47.236 162.5 47.056C162.471 46.9667 162.441 46.8787 162.412 46.7933L162.371 46.6693L162.337 46.5907C162.252 46.3827 162.165 46.1986 162.091 46.0333C161.791 45.3746 161.636 45.0333 161.636 45.0333L161.497 44.7386C161.497 44.7386 161.235 44.3027 160.725 43.456C160.596 43.2467 160.449 43.012 160.289 42.7533C160.123 42.4973 159.908 42.2427 159.689 41.956C159.243 41.3907 158.745 40.708 158.073 40.068C157.745 39.74 157.397 39.3907 157.031 39.024C156.639 38.7027 156.227 38.3626 155.795 38.008C155.577 37.8346 155.353 37.6573 155.125 37.4746C154.889 37.3173 154.647 37.1547 154.4 36.9893C153.903 36.672 153.393 36.2986 152.843 36.0026C150.656 34.72 148.053 33.684 145.157 32.888C142.259 32.0987 139.063 31.584 135.64 31.3466C132.217 31.12 128.569 31.2 124.741 31.5227C120.003 31.928 114.983 32.7293 109.76 33.9227C107.887 29.6773 105.883 25.7627 103.773 22.2333C101.891 19.0813 99.9186 16.2333 97.8986 13.7347C98.8773 12.3213 99.4547 10.608 99.4547 8.75732C99.4547 3.91999 95.5347 -4.90849e-06 90.6973 -4.90849e-06C88.204 -4.90849e-06 85.9587 1.04665 84.364 2.71998C84.1947 2.65465 84.028 2.58932 83.8666 2.52132C83.632 2.42932 83.4026 2.33865 83.1786 2.25065C82.9453 2.18265 82.7173 2.11465 82.4947 2.05065C82.048 1.92265 81.6227 1.80265 81.2173 1.68798C80.8 1.61465 80.404 1.54531 80.0307 1.47998C79.3013 1.32264 78.584 1.31331 77.988 1.27731C77.692 1.26531 77.4013 1.23731 77.172 1.24664C76.948 1.26131 76.7453 1.27331 76.564 1.28531C75.84 1.33065 75.4666 1.35332 75.4666 1.35332L75.396 1.35865C75.396 1.35865 74.9973 1.42665 74.2267 1.55865C74.0333 1.59199 73.8187 1.6293 73.58 1.67197C73.3427 1.71863 73.092 1.80798 72.8147 1.88531C72.2667 2.05731 71.6107 2.1933 70.9253 2.50263C70.5747 2.63863 70.204 2.78266 69.8133 2.93466C69.4413 3.12266 69.0493 3.32132 68.64 3.52799C68.4346 3.63332 68.2253 3.74131 68.0107 3.85198C67.8093 3.97998 67.6027 4.11064 67.3933 4.24397C66.9787 4.52131 66.5173 4.77597 66.0933 5.1053C64.336 6.35863 62.556 8.07865 60.8187 10.1826C59.084 12.292 57.4187 14.808 55.88 17.676C54.344 20.544 52.9627 23.7706 51.6787 27.2746C50.376 30.8533 49.228 34.74 48.2453 38.8893C48.2293 38.8893 48.2146 38.888 48.2 38.8867C46.7013 38.84 45.2013 38.7587 43.688 38.7667C40.668 38.7213 37.612 38.8293 34.54 39.0813C31.468 39.328 28.3733 39.7853 25.2747 40.424C22.176 41.072 19.0667 41.9427 16.0053 43.22C12.9547 44.5 9.90799 46.136 7.20665 48.5346L6.21599 49.468L5.72399 49.9387L5.26399 50.4587L4.356 51.5106C4.05467 51.8626 3.80266 52.2707 3.52799 52.652L3.12666 53.2346C2.99332 53.4266 2.86 53.6186 2.73333 53.8653C2.47733 54.3306 2.22933 54.8 1.988 55.2733L1.80932 55.6293C1.74799 55.7506 1.68666 55.872 1.66266 55.9466L1.456 56.468L1.25066 56.9907L1.14666 57.2506L1.09599 57.3813C1.03999 57.5333 1.14665 57.228 0.95732 57.7533C0.42132 59.5947 0.0226656 61.504 0.0199989 63.3933C0.0173323 63.8627 -0.0200063 64.3427 0.0146604 64.8053L0.126656 66.192L0.190653 66.8853L0.309322 67.5573L0.558654 68.8986C1.32799 72.4373 2.81065 75.5706 4.52399 78.4133C6.24399 81.2613 8.24399 83.8093 10.3653 86.1707C12.1973 88.196 14.1107 90.1027 16.0973 91.8853C15.212 93.116 14.36 94.3747 13.536 95.6547C11.912 98.2093 10.448 100.899 9.31466 103.761C8.18799 106.617 7.304 109.64 7.12267 112.804L7.09065 113.992L7.07465 114.585L7.11599 115.183L7.204 116.375C7.23333 116.773 7.33466 117.165 7.39733 117.56C7.48133 117.956 7.51332 118.345 7.64399 118.747L8.00533 119.945C8.07067 120.137 8.12133 120.36 8.19866 120.525L8.42 121.041L8.86533 122.071C8.95066 122.243 8.93333 122.193 8.97067 122.265L9.04666 122.397L9.19866 122.659L9.50266 123.183C9.704 123.532 9.90265 123.884 10.1587 124.196L10.8853 125.163C11.1213 125.489 11.424 125.756 11.692 126.056C11.9733 126.34 12.2307 126.653 12.5347 126.912L13.4453 127.688L13.9027 128.073L14.3907 128.413L15.3693 129.089C16.82 130.024 18.3587 130.773 19.9373 131.392C20.1187 136.068 23.9573 139.805 28.6773 139.805C32.3853 139.805 35.548 137.497 36.8253 134.243C38.5667 134.273 40.304 134.252 42.0307 134.155C45.8187 133.955 49.564 133.553 53.2573 132.991C55.02 137.992 57.1333 142.965 59.704 147.845L60.832 149.916L62.048 151.96C62.444 152.647 62.8933 153.313 63.3307 153.985C63.7667 154.657 64.2027 155.332 64.6867 155.987C66.5493 158.636 68.6307 161.221 71.1133 163.597C71.7293 164.193 72.3986 164.763 73.0426 165.343C73.7066 165.911 74.4333 166.443 75.1307 166.989C75.86 167.515 76.64 168.007 77.3986 168.509C78.22 168.961 79.0227 169.432 79.8813 169.841L81.2066 170.417L81.8733 170.697L82.5786 170.928L83.9947 171.371C84.468 171.515 84.9786 171.592 85.4693 171.7L86.2147 171.845L86.588 171.916C86.7107 171.94 86.872 171.949 87.0133 171.965C87.596 172.021 88.1813 172.067 88.7666 172.1L89.2053 172.123L89.4253 172.133C89.5 172.136 89.5266 172.132 89.58 172.131L90.14 172.112L91.2613 172.076C92.016 172.023 91.5813 172.045 91.8 172.027L91.992 172L92.376 171.944L93.1453 171.827C93.6586 171.748 94.1707 171.669 94.6627 171.519L96.1493 171.103C96.648 170.969 97.1013 170.749 97.5773 170.571C98.04 170.373 98.528 170.204 98.9666 169.973L100.276 169.272L100.927 168.912L101.528 168.511L102.725 167.699C103.495 167.136 104.197 166.525 104.923 165.928C105.576 165.295 106.253 164.667 106.875 164.015C107.46 163.348 108.076 162.689 108.625 162.007C109.153 161.317 109.707 160.635 110.203 159.933C112.203 157.132 113.769 154.2 115.117 151.251C116.455 148.297 117.603 145.316 118.513 142.315C119.961 137.635 121.033 132.949 121.823 128.288C125.457 128.212 128.935 127.984 132.204 127.585C135.963 127.129 139.463 126.451 142.639 125.572C144.141 128.235 146.992 130.036 150.268 130.036C155.105 130.036 159.025 126.116 159.025 121.279C159.025 119.899 158.697 118.597 158.128 117.436C158.147 117.419 158.167 117.397 158.185 117.38C158.364 117.204 158.539 117.031 158.711 116.861C158.867 116.676 159.019 116.496 159.168 116.319C159.464 115.961 159.747 115.621 160.015 115.299C160.249 114.947 160.471 114.613 160.681 114.299C161.12 113.695 161.417 113.043 161.691 112.512" fill="#3F3F3F"/>
</svg>
